<mxfile host="65bd71144e">
    <diagram id="zLMz-JdehbNynvGdMP1B" name="Page-1">
        <mxGraphModel dx="958" dy="705" grid="0" gridSize="10" guides="1" tooltips="1" connect="1" arrows="1" fold="1" page="1" pageScale="1" pageWidth="850" pageHeight="1100" math="0" shadow="0">
            <root>
                <mxCell id="0"/>
                <mxCell id="1" parent="0"/>
                <mxCell id="2" value="CosmosDB" style="aspect=fixed;html=1;points=[];align=center;image;fontSize=12;image=img/lib/azure2/databases/Azure_Cosmos_DB.svg;" parent="1" vertex="1">
                    <mxGeometry x="690" y="98" width="64" height="64" as="geometry"/>
                </mxCell>
                <mxCell id="22" style="edgeStyle=none;html=1;" parent="1" source="3" edge="1">
                    <mxGeometry relative="1" as="geometry">
                        <mxPoint x="837" y="341" as="targetPoint"/>
                    </mxGeometry>
                </mxCell>
                <mxCell id="3" value="Azure &lt;br&gt;Media Service" style="aspect=fixed;html=1;points=[];align=center;image;fontSize=12;image=img/lib/azure2/web/Azure_Media_Service.svg;" parent="1" vertex="1">
                    <mxGeometry x="688" y="307" width="68" height="68" as="geometry"/>
                </mxCell>
                <mxCell id="18" style="edgeStyle=none;html=1;" parent="1" source="4" edge="1">
                    <mxGeometry relative="1" as="geometry">
                        <mxPoint x="379" y="328" as="targetPoint"/>
                    </mxGeometry>
                </mxCell>
                <mxCell id="4" value="Storage Uploaded&lt;br&gt;Video" style="aspect=fixed;html=1;points=[];align=center;image;fontSize=12;image=img/lib/azure2/storage/Storage_Accounts.svg;" parent="1" vertex="1">
                    <mxGeometry x="239" y="302" width="65" height="52" as="geometry"/>
                </mxCell>
                <mxCell id="20" style="edgeStyle=none;html=1;" parent="1" source="5" edge="1">
                    <mxGeometry relative="1" as="geometry">
                        <mxPoint x="677" y="335" as="targetPoint"/>
                    </mxGeometry>
                </mxCell>
                <mxCell id="21" style="edgeStyle=none;html=1;" parent="1" source="5" edge="1">
                    <mxGeometry relative="1" as="geometry">
                        <mxPoint x="686" y="175" as="targetPoint"/>
                        <Array as="points">
                            <mxPoint x="560" y="175"/>
                        </Array>
                    </mxGeometry>
                </mxCell>
                <mxCell id="5" value="Get Uploaded&amp;nbsp;&lt;br&gt;Video" style="aspect=fixed;html=1;points=[];align=center;image;fontSize=12;image=img/lib/azure2/iot/Function_Apps.svg;" parent="1" vertex="1">
                    <mxGeometry x="526" y="305" width="68" height="60" as="geometry"/>
                </mxCell>
                <mxCell id="19" style="edgeStyle=none;html=1;" parent="1" source="7" edge="1">
                    <mxGeometry relative="1" as="geometry">
                        <mxPoint x="522" y="332" as="targetPoint"/>
                    </mxGeometry>
                </mxCell>
                <mxCell id="7" value="Event Grid&lt;br&gt;System Topic&lt;br&gt;Blob Created" style="aspect=fixed;html=1;points=[];align=center;image;fontSize=12;image=img/lib/azure2/integration/System_Topic.svg;" parent="1" vertex="1">
                    <mxGeometry x="381" y="302" width="68" height="60" as="geometry"/>
                </mxCell>
                <mxCell id="13" style="edgeStyle=none;html=1;exitX=0.5;exitY=0.5;exitDx=0;exitDy=0;exitPerimeter=0;" parent="1" source="8" target="9" edge="1">
                    <mxGeometry relative="1" as="geometry"/>
                </mxCell>
                <mxCell id="26" style="edgeStyle=none;html=1;startArrow=classic;startFill=1;" parent="1" source="8" edge="1">
                    <mxGeometry relative="1" as="geometry">
                        <mxPoint x="54" y="191" as="targetPoint"/>
                    </mxGeometry>
                </mxCell>
                <mxCell id="8" value="User" style="shape=umlActor;verticalLabelPosition=bottom;verticalAlign=top;html=1;outlineConnect=0;" parent="1" vertex="1">
                    <mxGeometry x="39" y="294" width="30" height="60" as="geometry"/>
                </mxCell>
                <mxCell id="14" style="edgeStyle=none;html=1;startArrow=classic;startFill=1;" parent="1" source="9" edge="1">
                    <mxGeometry relative="1" as="geometry">
                        <mxPoint x="154" y="191" as="targetPoint"/>
                    </mxGeometry>
                </mxCell>
                <mxCell id="17" style="edgeStyle=none;html=1;entryX=0;entryY=0.423;entryDx=0;entryDy=0;entryPerimeter=0;" parent="1" source="9" target="4" edge="1">
                    <mxGeometry relative="1" as="geometry"/>
                </mxCell>
                <mxCell id="30" style="edgeStyle=none;html=1;entryX=0.451;entryY=-0.083;entryDx=0;entryDy=0;entryPerimeter=0;" edge="1" parent="1" target="28">
                    <mxGeometry relative="1" as="geometry">
                        <mxPoint x="151" y="418" as="sourcePoint"/>
                    </mxGeometry>
                </mxCell>
                <mxCell id="9" value="Single&lt;br&gt;Page&lt;br&gt;Application" style="sketch=0;pointerEvents=1;shadow=0;dashed=0;html=1;strokeColor=#006EAF;fillColor=#1ba1e2;labelPosition=center;verticalLabelPosition=bottom;verticalAlign=top;outlineConnect=0;align=center;shape=mxgraph.office.concepts.web_page;fontColor=#ffffff;" parent="1" vertex="1">
                    <mxGeometry x="129" y="297" width="50" height="54" as="geometry"/>
                </mxCell>
                <mxCell id="23" style="edgeStyle=none;html=1;" parent="1" source="10" edge="1">
                    <mxGeometry relative="1" as="geometry">
                        <mxPoint x="881" y="196" as="targetPoint"/>
                    </mxGeometry>
                </mxCell>
                <mxCell id="10" value="Event Grid&lt;br&gt;System Topic&lt;br&gt;Video Encoded" style="aspect=fixed;html=1;points=[];align=center;image;fontSize=12;image=img/lib/azure2/integration/System_Topic.svg;" parent="1" vertex="1">
                    <mxGeometry x="847" y="307" width="68" height="60" as="geometry"/>
                </mxCell>
                <mxCell id="24" style="edgeStyle=none;html=1;" parent="1" source="11" edge="1">
                    <mxGeometry relative="1" as="geometry">
                        <mxPoint x="770" y="117" as="targetPoint"/>
                    </mxGeometry>
                </mxCell>
                <mxCell id="11" value="Get Media&lt;br&gt;Status Changed" style="aspect=fixed;html=1;points=[];align=center;image;fontSize=12;image=img/lib/azure2/iot/Function_Apps.svg;" parent="1" vertex="1">
                    <mxGeometry x="845" y="87" width="68" height="60" as="geometry"/>
                </mxCell>
                <mxCell id="15" style="edgeStyle=none;html=1;startArrow=classic;startFill=1;" parent="1" source="12" edge="1">
                    <mxGeometry relative="1" as="geometry">
                        <mxPoint x="674" y="128" as="targetPoint"/>
                    </mxGeometry>
                </mxCell>
                <mxCell id="16" style="edgeStyle=none;html=1;startArrow=classic;startFill=1;" parent="1" edge="1">
                    <mxGeometry relative="1" as="geometry">
                        <mxPoint x="690" y="305" as="targetPoint"/>
                        <mxPoint x="175" y="197" as="sourcePoint"/>
                        <Array as="points">
                            <mxPoint x="175" y="238"/>
                            <mxPoint x="572" y="238"/>
                        </Array>
                    </mxGeometry>
                </mxCell>
                <mxCell id="12" value="GetVideoById" style="aspect=fixed;html=1;points=[];align=center;image;fontSize=12;image=img/lib/azure2/iot/Function_Apps.svg;" parent="1" vertex="1">
                    <mxGeometry x="120" y="98" width="68" height="60" as="geometry"/>
                </mxCell>
                <mxCell id="27" style="edgeStyle=none;html=1;startArrow=classic;startFill=1;" parent="1" source="25" target="2" edge="1">
                    <mxGeometry relative="1" as="geometry">
                        <Array as="points">
                            <mxPoint x="45" y="32"/>
                            <mxPoint x="377" y="32"/>
                        </Array>
                    </mxGeometry>
                </mxCell>
                <mxCell id="25" value="GetVideos" style="aspect=fixed;html=1;points=[];align=center;image;fontSize=12;image=img/lib/azure2/iot/Function_Apps.svg;" parent="1" vertex="1">
                    <mxGeometry x="6" y="98" width="68" height="60" as="geometry"/>
                </mxCell>
                <mxCell id="29" style="edgeStyle=none;html=1;" edge="1" parent="1" source="28">
                    <mxGeometry relative="1" as="geometry">
                        <mxPoint x="278.0000305175781" y="397" as="targetPoint"/>
                        <Array as="points">
                            <mxPoint x="278" y="530"/>
                            <mxPoint x="278" y="475"/>
                        </Array>
                    </mxGeometry>
                </mxCell>
                <mxCell id="28" value="Valet Key&lt;br&gt;Pattern" style="aspect=fixed;html=1;points=[];align=center;image;fontSize=12;image=img/lib/azure2/iot/Function_Apps.svg;" vertex="1" parent="1">
                    <mxGeometry x="120" y="500" width="68" height="60" as="geometry"/>
                </mxCell>
            </root>
        </mxGraphModel>
    </diagram>
</mxfile>